# xmcd
#
# Track frame offsets:
#	150
#	18510
#	33010
#	45122
#	61499
#	73356
#	95914
#	110826
#	123649
#	138949
#	154496
#	176512
#	192239
#	215503
#
# Disc length: 3107 seconds
#
# Revision: 1
# Processed by: cddbd v1.5.2PL0 Copyright (c) Steve Scherf et al.
# Submitted via: EasyCDDAExtractor 12.0.0.1
#
DISCID=d00c210e
DTITLE=Eddie and Alonzo Pennington - Box Pickers
DYEAR=1900
DGENRE=Country
TTITLE0=Every Day I Have The Blues
TTITLE1=Avalon
TTITLE2=Walking After Midnight
TTITLE3=The Box Picker's Blues
TTITLE4=Head Over Heels
TTITLE5=Darkness On The Delta
TTITLE6=My Window Faces South
TTITLE7=Kentucky Waltz
TTITLE8=Key To The Highway
TTITLE9=G-Pappy Rag
TTITLE10=Backwater Blues
TTITLE11=I've Seen It In Your Eyes
TTITLE12=Superstition
TTITLE13=Just An Old Box Picker
EXTD=
EXTT0=
EXTT1=
EXTT2=
EXTT3=
EXTT4=
EXTT5=
EXTT6=
EXTT7=
EXTT8=
EXTT9=
EXTT10=
EXTT11=
EXTT12=
EXTT13=
PLAYORDER=
